<?xml version="1.0" encoding="UTF-8" standalone="no"?>
<svg width="380px" height="38px" viewBox="0 0 380 38" version="1.1" xmlns="http://www.w3.org/2000/svg" xmlns:xlink="http://www.w3.org/1999/xlink">
    <!-- Generator: Sketch 41.2 (35397) - http://www.bohemiancoding.com/sketch -->
    <title>biciclasica_logo</title>
    <desc>Created with Sketch.</desc>
    <defs></defs>
    <g id="Page-1" stroke="none" stroke-width="1" fill="none" fill-rule="evenodd">
        <g id="biciclasica_logo" fill="#232323">
            <path d="M362.9,8.6 L357.79,21.88 L368,21.88 L362.9,8.6 Z M355,23.77 L363,3.82 L370.86,23.77 L355,23.77 Z M373.77,36.95 L369.89,26.89 L355.8,26.89 L351.93,36.95 L349.73,36.95 L354.52,24.95 L371.3,24.95 L375.98,36.95 L373.77,36.95 Z M377.77,36.95 L364,2.37 L361.9,2.37 L348.1,36.95 L345.85,36.95 L360.48,0.43 L365.42,0.43 L380,36.95 L377.77,36.95 Z" id="A"></path>
            <path d="M333.43,29.15 C330.1,33.15 326.93,34.37 322.68,34.37 C313.68,34.37 309.4,26.63 309.4,18.83 C309.4,11.03 313.49,3.29 322.58,3.29 C326.864912,3.06461587 330.965552,5.05452133 333.44,8.56 L331.87,10 C329.780027,6.93990282 326.273964,5.15671133 322.57,5.27 C314.88,5.27 311.43,12.1 311.43,18.88 C311.43,25.66 314.87,32.48 322.57,32.48 C326.38,32.48 329.12,31.3 331.87,27.75 L333.43,29.15 Z M336,31.4 C332.742352,35.528774 327.705051,37.8485347 322.45,37.64 C310.99,37.64 305.67,28.39 305.67,18.87 C305.67,9.35 311,0 322.46,0 C328.75,0 333.05,2.42 336.01,6.29 L334.56,7.58 C331.01,3.49 328.05,1.93 322.46,1.93 C312.41,1.93 307.73,10.21 307.73,18.87 C307.73,27.53 312.51,35.7 322.57,35.7 C327.35,35.7 331.01,34.19 334.57,30.11 L336,31.4 Z" id="C"></path>
            <path d="M290.25,0.7 L292.25,0.7 L292.25,36.95 L290.25,36.95 L290.25,0.7 Z M286.81,0.7 L288.81,0.7 L288.81,36.95 L286.81,36.95 L286.81,0.7 Z" id="I"></path>
            <path d="M269.61,7.69 C265.84,2.91 262.4,1.94 258.61,1.94 C251.78,1.94 248.61,5.38 248.61,10.22 C248.61,15.33 253.34,17.37 257.86,18.93 C264.15,21.03 267.22,22.75 267.22,27.64 C267.22,31.24 263.78,34.31 258.35,34.31 C253.955523,34.3916899 249.817335,32.247356 247.35,28.61 L248.9,27.16 C251.43,30.5 254.33,32.38 258.37,32.38 C263,32.38 265.25,30.38 265.25,27.65 C265.25,23.83 262.25,22.6 257.25,20.88 C252.15,19.1 246.66,17.06 246.66,10.23 C246.64,3.71 251.48,0 258.58,0 C263.52,0 267.4,1.72 271,6.4 L269.61,7.69 Z M267.08,10.06 C264.55,6.83 261.97,5.28 258.31,5.28 C254.01,5.28 252.4,7.16 252.4,9.69 C252.4,13.24 255.57,14.31 259.98,15.88 C265.25,17.76 270.98,19.7 270.98,27.01 C270.98,33.79 265.33,37.66 258.07,37.66 C252.75,37.66 248.6,35.83 244.68,31.05 L246.08,29.76 C249.84,34.55 253.93,35.76 258.08,35.76 C263.58,35.71 269,33 269,27 C269,21.52 264.48,19.58 259.32,17.75 C253.62,15.75 250.44,14.31 250.44,9.68 C250.44,6.13 252.92,3.34 258.35,3.34 C262.22,3.34 265.45,4.63 268.52,8.77 L267.08,10.06 Z" id="S"></path>
            <path d="M219.17,8.6 L214.06,21.88 L224.27,21.88 L219.17,8.6 Z M211.26,23.76 L219.26,3.81 L227.11,23.76 L211.26,23.76 Z M230,36.95 L226.13,26.89 L212.07,26.89 L208.2,36.95 L206,36.95 L210.79,24.95 L227.57,24.95 L232.25,36.95 L230,36.95 Z M234,36.95 L220.3,2.37 L218.2,2.37 L204.38,36.95 L202.12,36.95 L216.75,0.43 L221.75,0.43 L236.32,36.95 L234,36.95 Z" id="A"></path>
            <path d="M172.77,33.61 L172.77,0.7 L174.77,0.7 L174.77,31.7 L193.27,31.7 L193.27,33.64 L172.77,33.61 Z M169.27,36.94 L169.27,0.7 L171.27,0.7 L171.27,35 L193.27,35 L193.27,36.94 L169.27,36.94 Z" id="L"></path>
            <path d="M152.81,29.15 C149.48,33.15 146.31,34.37 142.06,34.37 C133.06,34.37 128.77,26.63 128.77,18.83 C128.77,11.03 132.86,3.28 142,3.28 C146.284524,3.05653313 150.384286,5.04601261 152.86,8.55 L151.26,10 C149.189313,6.93306952 145.699459,5.13161142 142,5.22 C134.31,5.22 130.87,12.05 130.87,18.83 C130.87,25.61 134.31,32.43 142,32.43 C145.82,32.43 148.56,31.25 151.31,27.7 L152.81,29.15 Z M155.39,31.41 C152.132352,35.538774 147.095051,37.8585347 141.84,37.65 C130.38,37.65 125.06,28.4 125.06,18.88 C125.06,9.36 130.39,0 141.85,0 C148.14,0 152.44,2.42 155.4,6.29 L153.95,7.58 C150.4,3.49 147.45,1.93 141.85,1.93 C131.79,1.93 127.11,10.21 127.11,18.87 C127.11,27.53 131.9,35.71 142,35.71 C146.79,35.71 150.45,34.2 154,30.12 L155.39,31.41 Z" id="C"></path>
            <path d="M106.41,0.7 L108.41,0.7 L108.41,36.95 L106.41,36.95 L106.41,0.7 Z M103,0.7 L105,0.7 L105,36.95 L103,36.95 L103,0.7 Z" id="I"></path>
            <path d="M86.52,29.15 C83.18,33.15 80.01,34.37 75.77,34.37 C66.77,34.37 62.49,26.63 62.49,18.83 C62.49,11.03 66.57,3.28 75.65,3.28 C79.9376102,3.05494779 84.0410877,5.04439824 86.52,8.55 L85,10 C82.9068204,6.93830127 79.3970483,5.15514103 75.69,5.27 C68,5.27 64.56,12.1 64.56,18.88 C64.56,25.66 68,32.43 75.65,32.43 C79.46,32.43 82.21,31.25 84.96,27.7 L86.52,29.15 Z M89.1,31.4 C85.8381744,35.5290581 80.7978663,37.8484919 75.54,37.64 C64.09,37.64 58.76,28.39 58.76,18.87 C58.76,9.35 64.09,0 75.55,0 C81.84,0 86.14,2.42 89.1,6.29 L87.65,7.58 C84.1,3.5 81.14,1.94 75.55,1.94 C65.49,1.94 60.82,10.22 60.82,18.88 C60.82,27.54 65.6,35.71 75.65,35.71 C80.43,35.71 84.09,34.2 87.65,30.12 L89.1,31.4 Z" id="C"></path>
            <path d="M44.42,0.7 L46.42,0.7 L46.42,36.95 L44.42,36.95 L44.42,0.7 Z M41,0.7 L43,0.7 L43,36.95 L41,36.95 L41,0.7 Z" id="I"></path>
            <path d="M14.25,31.84 C19.25,31.84 21.67,30.06 21.67,26.19 C21.67,22.48 18.81,20.65 13.98,20.65 L5.48,20.65 L5.48,31.84 L14.25,31.84 Z M14.36,15.65 C17.64,15.65 19.84,14.04 19.84,10.81 C19.84,7.58 17.75,5.81 14.41,5.81 L5.48,5.81 L5.48,15.65 L14.36,15.65 Z M3.49,33.65 L3.49,18.82 L14,18.82 C19.81,18.82 23.68,21.13 23.68,26.19 C23.68,31.46 20.56,33.66 14.27,33.66 L3.49,33.65 Z M3.49,17.57 L3.49,4 L14.41,4 C18.99,4 21.83,6.53 21.83,10.83 C21.83,15.29 18.83,17.61 14.36,17.61 L3.49,17.57 Z M14.63,35 C20.27,35 25.22,32.36 25.22,26.34 C25.3009309,24.22734 24.5338108,22.1700172 23.0894412,20.6261007 C21.6450715,19.0821841 19.6433623,18.1798479 17.53,18.12 C21.13,17.47 23.39,14.52 23.39,10.59 C23.39,5.11 18.98,2.59 14.89,2.59 L2,2.59 L2,35 L14.63,35 Z M0,36.95 L0,0.7 L14.89,0.7 C20,0.7 25.38,3.7 25.38,10.59 C25.4660696,13.455242 24.0622522,16.1607124 21.67,17.74 C24.84,19.03 27.21,21.74 27.21,26.34 C27.21,33.76 21.4,36.94 14.62,36.94 L0,36.95 Z" id="B"></path>
        </g>
    </g>
</svg>