<svg id="Layer_1" data-name="Layer 1" xmlns="http://www.w3.org/2000/svg" viewBox="0 0 380 49.75"><defs><style>.cls-1{fill:#232323;}</style></defs><title>biciclasica-com</title><path class="cls-1" d="M14.25,31.84c5,0,7.42-1.78,7.42-5.65,0-3.71-2.86-5.54-7.69-5.54H5.48V31.84Zm.11-16.19c3.28,0,5.48-1.61,5.48-4.84s-2.09-5-5.43-5H5.48v9.84Zm-10.87,18V18.82H14c5.81,0,9.68,2.31,9.68,7.37,0,5.27-3.12,7.47-9.41,7.47Zm0-16.08V4H14.41c4.58,0,7.42,2.53,7.42,6.83,0,4.46-3,6.78-7.47,6.78ZM14.63,35c5.64,0,10.59-2.64,10.59-8.66a7.92,7.92,0,0,0-7.61-8.22h-.08c3.6-.65,5.86-3.6,5.86-7.53,0-5.48-4.41-8-8.5-8H2V35ZM0,37V.7H14.89c5.11,0,10.49,3,10.49,9.89a8.27,8.27,0,0,1-3.71,7.15c3.17,1.29,5.54,4,5.54,8.6,0,7.42-5.81,10.6-12.59,10.6Z"/><path class="cls-1" d="M44.42.7h2V37h-2ZM41,.7h2V37H41Z"/><path class="cls-1" d="M86.52,29.15c-3.34,4-6.51,5.22-10.75,5.22-9,0-13.28-7.74-13.28-15.54S66.57,3.28,75.65,3.28A12.51,12.51,0,0,1,86.52,8.55L85,10a10.87,10.87,0,0,0-9.31-4.73C68,5.27,64.56,12.1,64.56,18.88S68,32.43,75.65,32.43c3.81,0,6.56-1.18,9.31-4.73ZM89.1,31.4a16.45,16.45,0,0,1-13.56,6.24c-11.45,0-16.78-9.25-16.78-18.77S64.09,0,75.55,0C81.84,0,86.14,2.42,89.1,6.29L87.65,7.58C84.1,3.5,81.14,1.94,75.55,1.94c-10.06,0-14.73,8.28-14.73,16.94S65.6,35.71,75.65,35.71c4.78,0,8.44-1.51,12-5.59Z"/><path class="cls-1" d="M106.41.7h2V37h-2ZM103,.7h2V37h-2Z"/><path class="cls-1" d="M152.81,29.15c-3.33,4-6.5,5.22-10.75,5.22-9,0-13.29-7.74-13.29-15.54S132.86,3.28,142,3.28a12.5,12.5,0,0,1,10.86,5.27L151.26,10A10.86,10.86,0,0,0,142,5.22c-7.69,0-11.13,6.83-11.13,13.61s3.44,13.6,11.13,13.6c3.82,0,6.56-1.18,9.31-4.73Zm2.58,2.26a16.43,16.43,0,0,1-13.55,6.24c-11.46,0-16.78-9.25-16.78-18.77S130.39,0,141.85,0c6.29,0,10.59,2.42,13.55,6.29L154,7.58c-3.55-4.09-6.5-5.65-12.1-5.65-10.06,0-14.74,8.28-14.74,16.94S131.9,35.71,142,35.71c4.79,0,8.45-1.51,12-5.59Z"/><path class="cls-1" d="M172.77,33.61V.7h2v31h18.5v1.94Zm-3.5,3.33V.7h2V35h22v1.94Z"/><path class="cls-1" d="M219.17,8.6l-5.11,13.28h10.21Zm-7.91,15.16,8-20,7.85,20ZM230,37l-3.87-10.06H212.07L208.2,37H206l4.79-12h16.78l4.68,12Zm4,0L220.3,2.37h-2.1L204.38,37h-2.26L216.75.43h5L236.32,37Z"/><path class="cls-1" d="M269.61,7.69c-3.77-4.78-7.21-5.75-11-5.75-6.83,0-10,3.44-10,8.28,0,5.11,4.73,7.15,9.25,8.71,6.29,2.1,9.36,3.82,9.36,8.71,0,3.6-3.44,6.67-8.87,6.67a13,13,0,0,1-11-5.7l1.55-1.45c2.53,3.34,5.43,5.22,9.47,5.22,4.63,0,6.88-2,6.88-4.73,0-3.82-3-5-8-6.77s-10.59-3.82-10.59-10.65C246.64,3.71,251.48,0,258.58,0c4.94,0,8.82,1.72,12.42,6.4Zm-2.53,2.37c-2.53-3.23-5.11-4.78-8.77-4.78-4.3,0-5.91,1.88-5.91,4.41,0,3.55,3.17,4.62,7.58,6.19,5.27,1.88,11,3.82,11,11.13,0,6.78-5.65,10.65-12.91,10.65-5.32,0-9.47-1.83-13.39-6.61l1.4-1.29c3.76,4.79,7.85,6,12,6C263.58,35.71,269,33,269,27c0-5.48-4.52-7.42-9.68-9.25-5.7-2-8.88-3.44-8.88-8.07,0-3.55,2.48-6.34,7.91-6.34,3.87,0,7.1,1.29,10.17,5.43Z"/><path class="cls-1" d="M290.25.7h2V37h-2Zm-3.44,0h2V37h-2Z"/><path class="cls-1" d="M333.43,29.15c-3.33,4-6.5,5.22-10.75,5.22-9,0-13.28-7.74-13.28-15.54s4.09-15.54,13.18-15.54a12.49,12.49,0,0,1,10.86,5.27L331.87,10a10.86,10.86,0,0,0-9.3-4.73c-7.69,0-11.14,6.83-11.14,13.61s3.44,13.6,11.14,13.6c3.81,0,6.55-1.18,9.3-4.73ZM336,31.4a16.43,16.43,0,0,1-13.55,6.24c-11.46,0-16.78-9.25-16.78-18.77S311,0,322.46,0C328.75,0,333,2.42,336,6.29l-1.45,1.29C331,3.49,328,1.93,322.46,1.93c-10,0-14.73,8.28-14.73,16.94s4.78,16.83,14.84,16.83c4.78,0,8.44-1.51,12-5.59Z"/><path class="cls-1" d="M362.9,8.6l-5.11,13.28H368ZM355,23.77l8-20,7.86,20ZM373.77,37l-3.88-10.06H355.8L351.93,37h-2.2l4.79-12H371.3L376,37Zm4,0L364,2.37h-2.1L348.1,37h-2.25L360.48.43h4.94L380,37Z"/><rect class="cls-1" x="340.96" y="48.17" width="1.24" height="1.42"/><path class="cls-1" d="M350.28,49.75a4.88,4.88,0,0,1,0-9.75A4.92,4.92,0,0,1,354,41.49l-.73.78a4.09,4.09,0,0,0-3-1.29,3.9,3.9,0,0,0,0,7.78,4.08,4.08,0,0,0,3-1.36l.7.69a4.91,4.91,0,0,1-3.77,1.66"/><path class="cls-1" d="M362,41a3.71,3.71,0,0,0-3.69,3.88,3.75,3.75,0,0,0,3.72,3.9,3.71,3.71,0,0,0,3.69-3.88A3.75,3.75,0,0,0,362,41m0,8.77a4.88,4.88,0,1,1,4.82-4.89A4.73,4.73,0,0,1,362,49.75"/><polygon class="cls-1" points="375.5 47 375.45 47 372.02 41.97 372.02 49.59 370.98 49.59 370.98 40.16 372.06 40.16 375.49 45.3 378.92 40.16 380 40.16 380 49.59 378.94 49.59 378.94 41.95 375.5 47"/></svg>