<?xml version="1.0" encoding="UTF-8" standalone="no"?>
<svg width="32px" height="18px" viewBox="0 0 32 18" version="1.1" xmlns="http://www.w3.org/2000/svg" xmlns:xlink="http://www.w3.org/1999/xlink">
    <!-- Generator: Sketch 41.2 (35397) - http://www.bohemiancoding.com/sketch -->
    <title>Group</title>
    <desc>Created with Sketch.</desc>
    <defs></defs>
    <g id="Page-1" stroke="none" stroke-width="1" fill="none" fill-rule="evenodd">
        <g id="Group" fill="#77AE9A">
            <path d="M31.6847059,8.80941176 C31.6840784,8.79623529 31.6828235,8.78368627 31.6818824,8.77082353 C31.6812549,8.76423529 31.6809412,8.75764706 31.6803137,8.75137255 C31.6793725,8.74196078 31.6778039,8.73254902 31.676549,8.72345098 C31.6752941,8.71247059 31.6740392,8.7014902 31.6721569,8.69082353 C31.6718431,8.68956863 31.6715294,8.688 31.6715294,8.6867451 C31.6329412,8.44423529 31.5187451,8.21678431 31.3436863,8.04172549 C30.342902,6.85552941 29.1523137,5.79984314 27.9416471,4.83576471 C25.3342745,2.75827451 22.3523137,1.02023529 19.0607059,0.320627451 C17.1582745,-0.0834509804 15.2439216,-0.100705882 13.331451,0.241254902 C11.5918431,0.552470588 9.91529412,1.19937255 8.34603922,2.0012549 C5.88988235,3.25615686 3.6467451,4.98635294 1.69223529,6.92611765 C1.3305098,7.28501961 0.970666667,7.65145098 0.641882353,8.04141176 C0.203921569,8.56031373 0.203921569,9.17490196 0.641882353,9.69380392 C1.64266667,10.88 2.8332549,11.9353725 4.04392157,12.8997647 C6.65160784,14.9772549 9.63356863,16.7149804 12.9251765,17.4145882 C14.8276078,17.8189804 16.7422745,17.8362353 18.6547451,17.4942745 C20.3940392,17.1830588 22.0705882,16.5361569 23.6401569,15.7342745 C26.0963137,14.4790588 28.339451,12.7491765 30.2939608,10.8094118 C30.6556863,10.4501961 31.0155294,10.0840784 31.3443137,9.69411765 C31.5193725,9.5187451 31.6335686,9.29160784 31.6721569,9.04878431 C31.6721569,9.04752941 31.6724706,9.04596078 31.6727843,9.04470588 C31.6746667,9.03372549 31.6759216,9.02305882 31.6771765,9.01207843 C31.6784314,9.00298039 31.68,8.99356863 31.6809412,8.98415686 C31.6815686,8.97756863 31.6818824,8.97129412 31.6825098,8.96470588 C31.683451,8.95215686 31.6847059,8.93960784 31.6853333,8.92643137 C31.6862745,8.90698039 31.686902,8.88752941 31.686902,8.86776471 C31.686902,8.848 31.6856471,8.82886275 31.6847059,8.80941176 Z M16,14.9041569 C12.6660392,14.9041569 9.96360784,12.2017255 9.96360784,8.86776471 C9.96360784,5.53411765 12.6660392,2.83137255 16,2.83137255 C19.3339608,2.83137255 22.0363922,5.53380392 22.0363922,8.86776471 C22.0363922,12.2017255 19.3339608,14.9041569 16,14.9041569 Z" id="Shape"></path>
            <ellipse id="Oval" cx="16" cy="8.86776471" rx="1.99811765" ry="1.99811765"></ellipse>
        </g>
    </g>
</svg>