<?xml version="1.0" encoding="UTF-8" standalone="no"?>
<svg width="26px" height="32px" viewBox="0 0 26 32" version="1.1" xmlns="http://www.w3.org/2000/svg" xmlns:xlink="http://www.w3.org/1999/xlink" xmlns:sketch="http://www.bohemiancoding.com/sketch/ns">
    <!-- Generator: Sketch 3.3.1 (12005) - http://www.bohemiancoding.com/sketch -->
    <title>Shape</title>
    <desc>Created with Sketch.</desc>
    <defs></defs>
    <g id="Page-1" stroke="none" stroke-width="1" fill="none" fill-rule="evenodd" sketch:type="MSPage">
        <path d="M14,6.038 L14,4 L18,4 L18,2 C18,0.895 17.105,0 16,0 L10,0 C8.895,0 8,0.895 8,2 L8,4 L12,4 L12,6.038 C5.288,6.549 0,12.157 0,19 C0,26.18 5.82,32 13,32 C20.18,32 26,26.18 26,19 C26,12.157 20.712,6.549 14,6.038 L14,6.038 Z M20.071,26.071 C18.182,27.96 15.671,29 13,29 C10.329,29 7.818,27.96 5.929,26.071 C4.04,24.182 3,21.671 3,19 C3,16.329 4.04,13.818 5.929,11.929 C7.743,10.115 10.13,9.085 12.683,9.006 L12.006,18.819 C11.948,19.641 12.395,20 13.001,20 C13.607,20 14.054,19.64 13.996,18.819 L13.319,9.006 C15.871,9.085 18.259,10.116 20.073,11.929 C21.962,13.818 23.002,16.329 23.002,19 C23.002,21.671 21.962,24.182 20.073,26.071 L20.071,26.071 Z" id="Shape" fill="#FFFFFF" sketch:type="MSShapeGroup"></path>
    </g>
</svg>