<?xml version="1.0" encoding="UTF-8" standalone="no"?>
<svg width="25px" height="32px" viewBox="0 0 25 32" version="1.1" xmlns="http://www.w3.org/2000/svg" xmlns:xlink="http://www.w3.org/1999/xlink">
    <!-- Generator: Sketch 41.2 (35397) - http://www.bohemiancoding.com/sketch -->
    <title>Shape</title>
    <desc>Created with Sketch.</desc>
    <defs></defs>
    <g id="Page-1" stroke="none" stroke-width="1" fill="none" fill-rule="evenodd">
        <path d="M22.850606,12.922929 L22.2270855,12.922929 L22.2270855,10.0046637 C22.2270855,4.60710903 17.9437679,0.0982222286 12.5901305,0.00197233391 C12.4438491,-0.000657444636 12.1515492,-0.000657444636 12.0053335,0.00197233391 C6.65156462,0.0982222286 2.36831281,4.60710903 2.36831281,10.0046637 L2.36831281,12.922929 L1.74472657,12.922929 C0.783805495,12.922929 0,13.914487 0,15.1391091 L0,29.7759305 C0,30.999172 0.783805495,32 1.74479232,32 L22.850606,32 C23.8115271,32 24.5953983,30.999172 24.5953983,29.7759305 L24.5953983,15.1391091 C24.5953983,13.9145527 23.8115928,12.922929 22.850606,12.922929 Z M14.2750296,22.4426616 L14.2750296,26.8653574 C14.2750296,27.371787 13.8510436,27.8003752 13.3442195,27.8003752 L11.2513103,27.8003752 C10.7444205,27.8003752 10.3204344,27.371787 10.3204344,26.8653574 L10.3204344,22.4426616 C9.82886305,21.9587823 9.5426774,21.2897009 9.5426774,20.5495498 C9.5426774,19.1469574 10.6268694,17.9417299 12.0053993,17.8860443 C12.1514835,17.8801273 12.4441121,17.8801273 12.5901963,17.8860443 C13.9687262,17.9417299 15.0529181,19.1469574 15.0529181,20.5495498 C15.0527866,21.2897009 14.766601,21.9587823 14.2750296,22.4426616 Z M18.1173991,12.922929 L12.5901305,12.922929 L12.0053335,12.922929 L6.47806498,12.922929 L6.47806498,10.0046637 C6.47806498,6.78943076 9.09101294,4.13092188 12.2976991,4.13092188 C15.5043854,4.13092188 18.1174648,6.78943076 18.1174648,10.0046637 L18.1174648,12.922929 L18.1173991,12.922929 Z" id="Shape" fill="#5D5D5D"></path>
    </g>
</svg>