<?xml version="1.0" encoding="UTF-8" standalone="no"?>
<svg width="32px" height="32px" viewBox="0 0 32 32" version="1.1" xmlns="http://www.w3.org/2000/svg" xmlns:xlink="http://www.w3.org/1999/xlink" xmlns:sketch="http://www.bohemiancoding.com/sketch/ns">
    <!-- Generator: Sketch 3.3.1 (12005) - http://www.bohemiancoding.com/sketch -->
    <title>Shape</title>
    <desc>Created with Sketch.</desc>
    <defs></defs>
    <g id="Page-1" stroke="none" stroke-width="1" fill="none" fill-rule="evenodd" sketch:type="MSPage">
        <path d="M8.30323976,20.5605616 C13.3257716,26.6382471 25.5655549,32.4626958 28.5199854,31.1543052 C31.4744159,29.8459145 32.1075081,27.0181025 31.9808897,25.7097119 C31.8542712,24.4013212 25.1434934,20.391737 23.4552475,19.6320263 C21.7670015,18.8723156 19.8255186,21.3202723 18.8969833,22.375426 C17.9262419,23.3883736 14.2121007,20.3073247 12.608267,18.7456972 C12.608267,18.7456972 8.38765206,14.0186084 9.3583935,13.0056608 C10.3291349,11.9927133 12.7348855,9.96681808 11.8907625,8.32077824 C11.0466395,6.67473841 6.78381838,0.0905790823 5.43322159,0.00616678318 C4.12483096,-0.0782455159 1.33922509,0.681465176 0.1574529,3.67810179 C-1.02431929,6.67473841 4.63130475,18.1126049 10.920021,22.8818998" id="Shape" fill="#B8B8B8" sketch:type="MSShapeGroup"></path>
    </g>
</svg>