<?xml version="1.0" encoding="UTF-8" standalone="no"?>
<svg width="32px" height="26px" viewBox="0 0 32 26" version="1.1" xmlns="http://www.w3.org/2000/svg" xmlns:xlink="http://www.w3.org/1999/xlink" xmlns:sketch="http://www.bohemiancoding.com/sketch/ns">
    <!-- Generator: Sketch 3.3.1 (12005) - http://www.bohemiancoding.com/sketch -->
    <title>Shape</title>
    <desc>Created with Sketch.</desc>
    <defs></defs>
    <g id="Page-1" stroke="none" stroke-width="1" fill="none" fill-rule="evenodd" sketch:type="MSPage">
        <path d="M31.130321,9.84551907 C29.6719374,11.7157759 23.6641181,7.62949714 23.6641181,7.62949714 C23.6641181,7.62949714 24.4606199,4.9282822 22.753029,4.41864924 C21.045438,3.90901628 16.1370156,3.84330889 16.1370156,3.84330889 C16.1370156,3.84330889 11.0138421,3.7908231 9.29543349,4.26239385 C7.57662422,4.73356395 8.31262717,7.45200705 8.31262717,7.45200705 C8.31262717,7.45200705 2.21506113,11.4028644 0.798746268,9.50055525 C-0.617568597,7.59824606 0.281100213,4.99158566 0.281100213,4.99158566 C0.281100213,4.99158566 0.519489844,4.31327702 1.95303287,3.16860614 C5.81855078,-0.0566653384 14.1702009,-0.0522581352 16.5084226,0.0166544976 C19.6010773,0.0639317689 26.704287,0.509860607 30.117065,3.48913001 C31.5245654,4.66545262 31.7717694,5.32212591 31.7717694,5.32212591 C31.7717694,5.32212591 32.5891053,7.97526227 31.130321,9.84551907 L31.130321,9.84551907 Z M29.7124036,16.8762102 L29.7124036,21.8098739 C29.7124036,22.8672021 29.2512498,24.1356753 28.6871278,24.6292821 C28.1234065,25.1228888 26.7968383,25.5263483 25.7395102,25.5263483 L23.6633168,25.5263483 C23.4810188,24.5179 22.5955716,23.7462388 21.5370415,23.7462388 L10.4633424,23.7462388 C9.40441161,23.7462388 8.51896441,24.5179 8.33706711,25.5263483 L6.26087372,25.5263483 C5.2035456,25.5263483 3.87737807,25.1228888 3.31325605,24.6292821 C2.74953469,24.136076 2.28798031,22.8672021 2.28798031,21.8098739 L2.28798031,16.8762102 C2.28798031,15.8188821 3.04241338,14.5311774 3.96472083,14.0143327 L6.44196971,12.6260637 C7.36427716,12.1092189 8.47248845,10.8968374 8.90519568,9.93206052 L9.83150967,7.8658835 C10.2638162,6.90110664 11.4830089,6.1118166 12.5399364,6.1118166 L14.0776497,6.1118166 L17.9223335,6.1118166 L19.4600468,6.1118166 C20.5173749,6.1118166 21.736167,6.90110664 22.1684736,7.8658835 L23.0947875,9.93206052 C23.5270941,10.8968374 24.6357061,12.1092189 25.5580135,12.6260637 L28.0352624,14.0143327 C28.9579705,14.5311774 29.7124036,15.8188821 29.7124036,16.8762102 L29.7124036,16.8762102 Z M21.5009826,14.7411206 C21.5009826,11.7033556 19.0381573,9.24053026 16.0003923,9.24053026 C12.9626273,9.24053026 10.4998019,11.7033556 10.4998019,14.7411206 C10.4998019,17.7788856 12.9626273,20.2417109 16.0003923,20.2417109 C19.0381573,20.2417109 21.5009826,17.7792862 21.5009826,14.7411206 L21.5009826,14.7411206 Z M20.5902941,14.7415212 C20.5902941,12.2105846 18.5313289,10.1516194 16.0003923,10.1516194 C13.4694556,10.1516194 11.4104904,12.2105846 11.4104904,14.7415212 C11.4104904,17.2724579 13.4694556,19.3310224 16.0003923,19.3310224 C18.5313289,19.3310224 20.5902941,17.2720572 20.5902941,14.7415212 L20.5902941,14.7415212 Z M19.9071776,14.7415212 C19.9071776,16.8958423 18.1547133,18.6483066 16.0003923,18.6483066 C13.8460712,18.6483066 12.0936069,16.8958423 12.0936069,14.7415212 C12.0936069,12.5872002 13.8460712,10.8347359 16.0003923,10.8347359 C18.1547133,10.8343352 19.9071776,12.5872002 19.9071776,14.7415212 L19.9071776,14.7415212 Z" id="Shape" fill="#B8B8B8" sketch:type="MSShapeGroup"></path>
    </g>
</svg>