<?xml version="1.0" encoding="UTF-8" standalone="no"?>
<svg width="32px" height="32px" viewBox="0 0 32 32" version="1.1" xmlns="http://www.w3.org/2000/svg" xmlns:xlink="http://www.w3.org/1999/xlink">
    <!-- Generator: Sketch 3.6 (26304) - http://www.bohemiancoding.com/sketch -->
    <title>Shape</title>
    <desc>Created with Sketch.</desc>
    <defs></defs>
    <g id="Page-1" stroke="none" stroke-width="1" fill="none" fill-rule="evenodd">
        <path d="M12.2719562,19.7424348 C15.1419503,22.5913764 18.4639161,25.3129238 19.7680873,23.9988048 C21.6354304,22.1178124 22.7848315,20.4812749 26.9285363,23.7858899 C31.072241,27.0921243 27.90759,29.3171273 26.0990087,31.1398207 C24.0119647,33.2426734 16.1949575,31.2871877 8.44665986,23.5976518 C0.69882494,15.9065737 -1.31634782,8.10483525 0.77223855,6.00098009 C2.58135966,4.1782096 4.78268836,0.997827122 8.1177638,5.11739485 C11.4544587,9.23488047 9.82671235,10.3968514 7.95936931,12.2783836 C6.65581503,13.5919628 9.40149948,16.8929534 12.2719562,19.7424348 L12.2719562,19.7424348 Z M16.4335517,6.15096903 C16.4335517,6.15096903 15.5677801,6.01570908 14.961578,6.62237386 C14.3375623,7.24638955 14.3103406,8.32137456 14.9679014,8.97839553 C15.3564846,9.3669787 15.9044647,9.44980036 15.9044647,9.44980036 C16.9726636,9.65014548 18.5825192,9.98937497 20.2957091,11.702025 C22.0083592,13.414598 22.3475887,15.0244536 22.5479338,16.0931923 C22.5479338,16.0931923 22.6307554,16.6411724 23.0193386,17.0297556 C23.6764367,17.6868537 24.7513446,17.6600948 25.3753603,17.0360791 C25.9815624,16.4299541 25.8467651,15.5641824 25.8467651,15.5641824 C25.5075356,13.4005631 24.4587698,11.1404726 22.6579771,9.33975706 C20.8567217,7.53904149 18.5965542,6.49073832 16.4335517,6.15096903 L16.4335517,6.15096903 Z M24.5546239,7.44303315 C27.6946751,10.5830844 29.0333939,14.1468062 28.5976163,17.0345368 C28.5976163,17.0345368 28.4455452,17.9490452 29.042802,18.5463019 C29.7150917,19.2185917 30.7805916,19.1798028 31.4098511,18.551083 C31.8141658,18.1467684 31.9022312,17.4886678 31.9022312,17.4886678 C32.2625132,14.9931449 31.8094617,9.9727181 26.916969,5.08076516 C22.0244762,0.188735106 17.0045893,-0.264316323 14.5089892,0.0954257905 C14.5089892,0.0954257905 13.8514285,0.183028586 13.446574,0.58780594 C12.8173145,1.21706546 12.7790654,2.28264242 13.451278,2.95485507 C14.0486119,3.55218892 14.9630432,3.40004075 14.9630432,3.40004075 C17.8509279,2.96426311 21.4145726,4.30305901 24.5546239,7.44303315 L24.5546239,7.44303315 Z" id="Shape" fill="#B8B8B8"></path>
    </g>
</svg>