<?xml version="1.0" encoding="UTF-8" standalone="no"?>
<svg width="32px" height="28px" viewBox="0 0 32 28" version="1.1" xmlns="http://www.w3.org/2000/svg" xmlns:xlink="http://www.w3.org/1999/xlink">
    <!-- Generator: Sketch 3.6 (26304) - http://www.bohemiancoding.com/sketch -->
    <title>Shape</title>
    <desc>Created with Sketch.</desc>
    <defs></defs>
    <g id="Page-1" stroke="none" stroke-width="1" fill="none" fill-rule="evenodd">
        <path d="M32,9.192 C32,11.891 30.837,14.318 28.985,16 L29,16 L19,26 C18,27 17,28 16,28 C15,28 14,27 13,26 L3.015,16 C1.163,14.318 0,11.891 0,9.192 C0,4.115 4.116,0 9.192,0 C11.891,0 14.318,1.163 16,3.015 C17.682,1.163 20.109,4.4408921e-16 22.808,4.4408921e-16 C27.885,4.4408921e-16 32,4.116 32,9.192 L32,9.192 Z" id="Shape" fill="#232323"></path>
    </g>
</svg>