<?xml version="1.0" encoding="UTF-8" standalone="no"?>
<svg width="32px" height="23px" viewBox="0 0 32 23" version="1.1" xmlns="http://www.w3.org/2000/svg" xmlns:xlink="http://www.w3.org/1999/xlink">
    <!-- Generator: Sketch 41.2 (35397) - http://www.bohemiancoding.com/sketch -->
    <title>Shape</title>
    <desc>Created with Sketch.</desc>
    <defs></defs>
    <g id="Page-1" stroke="none" stroke-width="1" fill="none" fill-rule="evenodd">
        <path d="M29.3333333,4.76657778 L26.6666667,4.76657778 L26.6666667,1.21102222 L18.6552889,1.21102222 C17.9132444,0.655644444 16.9959111,0.322133333 16,0.322133333 C14.4391111,0.322133333 13.0659556,1.1328 12.2730667,2.35377778 L7.56586667,0 L5.44711111,4.76657778 L2.66666667,4.76657778 C1.19608889,4.76657778 0,5.96266667 0,7.43324444 C0,8.74844444 0.957511111,9.84142222 2.21191111,10.0583111 L5.33333333,22.5443556 L26.7214222,22.5443556 L29.8449778,10.0494222 C31.0712889,9.80977778 32,8.72853333 32,7.43324444 C32,5.96266667 30.8039111,4.76657778 29.3333333,4.76657778 Z M24.8888889,2.9888 L24.8888889,4.76657778 L20.4444444,4.76657778 C20.4444444,4.1344 20.3096889,3.53386667 20.0707556,2.9888 L24.8888889,2.9888 Z M16,2.09991111 C17.4705778,2.09991111 18.6666667,3.296 18.6666667,4.76657778 L13.3333333,4.76657778 C13.3333333,3.296 14.5294222,2.09991111 16,2.09991111 Z M8.43448889,2.42204444 L11.6238222,4.01671111 C11.5822222,4.26097778 11.5555556,4.51057778 11.5555556,4.76657778 L7.39235556,4.76657778 L8.43448889,2.42204444 Z M5.1936,10.9888 L9.25653333,10.9888 L9.70097778,14.5443556 L6.08248889,14.5443556 L5.1936,10.9888 Z M7.41582222,19.8776889 L6.52693333,16.3221333 L9.9232,16.3221333 L10.3676444,19.8776889 L7.41582222,19.8776889 Z M15.1384889,19.8776889 L12.1592889,19.8776889 L11.7148444,16.3221333 L15.1388444,16.3221333 L15.1388444,19.8776889 L15.1384889,19.8776889 Z M15.1384889,14.5443556 L11.4922667,14.5443556 L11.0478222,10.9888 L15.1384889,10.9888 L15.1384889,14.5443556 L15.1384889,14.5443556 Z M19.8958222,19.8776889 L16.9162667,19.8776889 L16.9162667,16.3221333 L20.3402667,16.3221333 L19.8958222,19.8776889 Z M20.5624889,14.5443556 L16.9162667,14.5443556 L16.9162667,10.9888 L21.0065778,10.9888 L20.5624889,14.5443556 Z M24.6392889,19.8776889 L21.6874667,19.8776889 L22.1319111,16.3221333 L25.5281778,16.3221333 L24.6392889,19.8776889 Z M25.9726222,14.5443556 L22.3537778,14.5443556 L22.7982222,10.9888 L26.8615111,10.9888 L25.9726222,14.5443556 Z M29.3333333,8.32213333 L2.66666667,8.32213333 C2.17635556,8.32213333 1.77777778,7.9232 1.77777778,7.43324444 C1.77777778,6.94328889 2.17635556,6.54435556 2.66666667,6.54435556 L29.3333333,6.54435556 C29.8236444,6.54435556 30.2222222,6.94328889 30.2222222,7.43324444 C30.2222222,7.9232 29.8236444,8.32213333 29.3333333,8.32213333 Z" id="Shape" fill="#B8B8B8"></path>
    </g>
</svg>