<?xml version="1.0" encoding="UTF-8" standalone="no"?>
<svg width="32px" height="28px" viewBox="0 0 32 28" version="1.1" xmlns="http://www.w3.org/2000/svg" xmlns:xlink="http://www.w3.org/1999/xlink">
    <!-- Generator: Sketch 3.6 (26304) - http://www.bohemiancoding.com/sketch -->
    <title>Combined-Shape</title>
    <desc>Created with Sketch.</desc>
    <defs></defs>
    <g id="Page-1" stroke="none" stroke-width="1" fill="none" fill-rule="evenodd">
        <path d="M19,26 C18,27 17,28 16,28 C15,28 14,27 13,26 L3.015,16 C1.163,14.318 0,11.891 0,9.192 C0,4.115 4.116,0 9.192,0 C11.891,0 14.318,1.163 16,3.015 C17.682,1.163 20.109,4.4408921e-16 22.808,4.4408921e-16 C27.885,4.4408921e-16 32,4.116 32,9.192 C32,10.9545786 31.5040123,12.6011566 30.6440494,14 L19,26 L19,26 Z M26.8089157,14.1252211 C28.196269,12.8652167 29,11.0886596 29,9.17828571 C29,5.49017687 26.0100478,2.5 22.3217143,2.5 C20.4113404,2.5 18.6347833,3.303731 17.3747789,4.69108427 L16,6.20481224 L14.6252211,4.69108427 C13.3652167,3.303731 11.5886596,2.5 9.67828571,2.5 C5.99017687,2.5 3,5.48995218 3,9.17828571 C3,11.0886596 3.803731,12.8652167 5.25668358,14.1877877 L14.5274841,23.4725159 C15.5019368,24.4469688 15.9535975,24.7857143 16,24.7857143 C16.0464025,24.7857143 16.4980632,24.4469688 17.4725159,23.4725159 L26.8089157,14.1252211 L26.8089157,14.1252211 Z" id="Combined-Shape" fill="#B8B8B8"></path>
    </g>
</svg>