<?xml version="1.0" encoding="UTF-8" standalone="no"?>
<svg width="32px" height="32px" viewBox="0 0 32 32" version="1.1" xmlns="http://www.w3.org/2000/svg" xmlns:xlink="http://www.w3.org/1999/xlink">
    <!-- Generator: Sketch 3.6 (26304) - http://www.bohemiancoding.com/sketch -->
    <title>Shape</title>
    <desc>Created with Sketch.</desc>
    <defs></defs>
    <g id="Page-1" stroke="none" stroke-width="1" fill="none" fill-rule="evenodd">
        <path d="M27.666,9.38475 L27.666,9.3866875 C27.8769375,8.9414375 28,8.4765625 28,8 L28,6 C28,2.6875 22.6269375,0 16,0 C9.3730625,0 4,2.6875 4,6 C4,5.8359375 4.0234375,5.67575 4.0488125,5.515625 C1.5703125,6.6133125 0,8.214875 0,10 L0,12 C0,13.8555 1.6875,15.5136875 4.334,16.6133125 L4.334,16.6133125 C4.1230625,17.058625 4,17.5234375 4,18 L4,20 C4,20.703125 4.2539375,21.3730625 4.69925,22 C4.2539375,22.6269375 4,23.296875 4,24 L4,26 C4,29.3125 9.3730625,32 16,32 C22.6269375,32 28,29.3125 28,26 L28,24 C28,23.285125 27.7363125,22.6035 27.2793125,21.96875 C27.275375,21.9726875 27.2715,21.9785 27.2675625,21.9824375 C27.6035,21.505875 27.8671875,21.00975 27.9511875,20.484375 C30.4296875,19.38475 32,17.7851875 32,16 L32,14 C32,12.1445625 30.3125,10.484375 27.666,9.38475 L27.666,9.38475 Z M16,1 C22.4824375,1 27,3.63475 27,6 C27,8.3633125 22.4824375,11 16,11 C9.5175625,11 5,8.3633125 5,6 C5,3.63475 9.5175625,1 16,1 L16,1 Z M1,10 C1,8.832 2.1074375,7.6035 4,6.6543125 L4,8 C4,11.3125 9.3730625,14 16,14 C16.99025,14 17.94725,13.9335625 18.8671875,13.8203125 C17.0331875,14.525375 14.703125,15 12,15 C5.5175625,15 1,12.3633125 1,10 L1,10 Z M27,24 C27,26.3633125 22.4824375,29 16,29 C9.5175625,29 5,26.3633125 5,24 C5,23.6074375 5.168,23.209 5.4043125,22.8144375 C5.402375,22.8125 5.3984375,22.8085625 5.3965,22.8046875 C7.4101875,24.7050625 11.402375,26 16,26 C20.6035,26 24.5761875,24.6953125 26.5859375,22.791 L26.582,22.7949375 C26.828125,23.1953125 27,23.599625 27,24 L27,24 Z M22.871125,21.8203125 C21.0351875,22.527375 18.7050625,23 16,23 C9.5175625,23 5,20.36325 5,18 C5,17.660125 5.1171875,17.316375 5.2949375,16.9765625 C6.2754375,17.306625 7.359375,17.5664375 8.517625,17.74025 C10.00975,20.2050625 14.584,22 20,22 C20.994125,22 21.9550625,21.9335625 22.8789375,21.818375 C22.8769375,21.818375 22.875,21.8203125 22.871125,21.8203125 L22.871125,21.8203125 Z M20,19 C17.4335625,19 15.1953125,18.578125 13.4023125,17.931625 C19.041,17.5995625 23.494125,15.3359375 23.951125,12.484375 C25.3124375,11.880875 26.4023125,11.128875 27.1035,10.2734375 L27.1015625,10.2734375 C29.5234375,11.2578125 31,12.6640625 31,14 C31,16.3633125 26.4824375,19 20,19 L20,19 Z M18.13675,7.4570625 C18.13675,7.246125 17.96875,7.084 17.6328125,6.9765625 C17.296875,6.8671875 16.5488125,6.7265625 15.390625,6.5585625 C14.349625,6.4120625 13.535125,6.2655625 12.9491875,6.1210625 C12.36325,5.9765625 11.8866875,5.773375 11.5214375,5.5155625 C11.1561875,5.2538125 10.972625,4.949125 10.972625,4.605375 C10.972625,4.15225 11.30075,3.7420625 11.953125,3.3788125 C12.6055,3.0175 13.6328125,2.79675 15.0351875,2.71475 L15.0351875,2 L16.92975,2 L16.92975,2.714875 C19.0469375,2.820375 20.4180625,3.308625 21.0410625,4.1875625 L18.4316875,4.6250625 C17.9219375,4.0235 17.13675,3.7226875 16.070375,3.7226875 C15.5351875,3.7226875 15.1055,3.789125 14.78325,3.9258125 C14.459,4.058625 14.2969375,4.2226875 14.2969375,4.414125 C14.2969375,4.6094375 14.4531875,4.757875 14.7656875,4.863375 C15.07625,4.966875 15.7461875,5.093875 16.769625,5.250125 C17.894625,5.418125 18.7774375,5.5763125 19.416125,5.7266875 C20.05675,5.875125 20.5665,6.0821875 20.9493125,6.3458125 C21.3301875,6.6095 21.5215625,6.9180625 21.5215625,7.269625 C21.5215625,7.812625 21.127,8.2618125 20.3399375,8.623125 C19.552875,8.9844375 18.416125,9.197375 16.92975,9.2618125 L16.92975,10.1875 L15.0351875,10.1875 L15.0351875,9.265625 C12.5566875,9.162125 11.0234375,8.5703125 10.4316875,7.4960625 L13.361375,7.1835625 C13.632875,7.859375 14.5313125,8.19725 16.0566875,8.19725 C16.7695625,8.19725 17.2969375,8.125 17.632875,7.9804375 C17.9688125,7.835875 18.13675,7.662125 18.13675,7.4570625 L18.13675,7.4570625 Z" id="Shape" fill="#FFFFFF"></path>
    </g>
</svg>