<?xml version="1.0" encoding="UTF-8" standalone="no"?>
<svg width="20px" height="20px" viewBox="0 0 20 20" version="1.1" xmlns="http://www.w3.org/2000/svg" xmlns:xlink="http://www.w3.org/1999/xlink" xmlns:sketch="http://www.bohemiancoding.com/sketch/ns">
    <!-- Generator: Sketch 3.3.1 (12005) - http://www.bohemiancoding.com/sketch -->
    <title>Shape</title>
    <desc>Created with Sketch.</desc>
    <defs></defs>
    <g id="Page-1" stroke="none" stroke-width="1" fill="none" fill-rule="evenodd" sketch:type="MSPage">
        <path d="M11.7463862,0 C7.18704399,0 3.4934584,3.61761215 3.4934584,8.07897193 C3.4934584,9.60488775 3.92569199,11.0315837 4.67668495,12.2489838 L0.675429506,16.1660228 L0.689355886,16.1796561 C0.262280216,16.5798177 4.94069157e-08,17.1478704 4.94069157e-08,17.7898962 C-0.000257846529,19.0302709 1.00914685,20.0002524 2.2749001,20 C2.92144521,19.9997475 3.4996479,19.7465222 3.9122814,19.3344946 L3.92233934,19.3443409 L8.05073748,15.3025827 C9.16278476,15.8486707 10.4171906,16.1579439 11.7463862,16.1579439 C16.3059864,16.1579439 19.9987983,12.5408366 19.9987983,8.07897193 C19.9987983,3.61761215 16.3057285,0 11.7463862,0 L11.7463862,0 Z M11.7964181,12.9811406 C8.94666796,12.9811406 6.63824144,10.7205433 6.63824144,7.93178316 C6.63824144,5.14352797 8.94666796,2.8824257 11.7964181,2.8824257 C14.6461681,2.8824257 16.9540789,5.14327551 16.9540789,7.93178316 C16.9543368,10.7205433 14.6461681,12.9811406 11.7964181,12.9811406 L11.7964181,12.9811406 Z" id="Shape" fill="#CACACA" sketch:type="MSShapeGroup" transform="translate(9.999399, 10.000000) scale(-1, 1) translate(-9.999399, -10.000000) "></path>
    </g>
</svg>