<?xml version="1.0" encoding="UTF-8" standalone="no"?>
<svg width="68px" height="68px" viewBox="0 0 68 68" version="1.1" xmlns="http://www.w3.org/2000/svg" xmlns:xlink="http://www.w3.org/1999/xlink" xmlns:sketch="http://www.bohemiancoding.com/sketch/ns">
    <!-- Generator: Sketch 3.3.1 (12005) - http://www.bohemiancoding.com/sketch -->
    <title>Oval 1 + +</title>
    <desc>Created with Sketch.</desc>
    <defs></defs>
    <g id="Page-1" stroke="none" stroke-width="1" fill="none" fill-rule="evenodd" sketch:type="MSPage">
        <g id="Oval-1-+-+" sketch:type="MSLayerGroup" fill="#3E3E3E">
            <path d="M34,67.5 C52.5015391,67.5 67.5,52.5015391 67.5,34 C67.5,15.4984609 52.5015391,0.5 34,0.5 C15.4984609,0.5 0.5,15.4984609 0.5,34 C0.5,52.5015391 15.4984609,67.5 34,67.5 L34,67.5 Z M34,60.5 C19.3644541,60.5 7.5,48.6355459 7.5,34 C7.5,19.3644541 19.3644541,7.5 34,7.5 C48.6355459,7.5 60.5,19.3644541 60.5,34 C60.5,48.6355459 48.6355459,60.5 34,60.5 L34,60.5 Z" id="Shape" sketch:type="MSShapeGroup"></path>
            <path d="M37.5951904,30.590566 L47,30.590566 L47,36.9924528 L37.5951904,36.9924528 L37.5951904,47 L30.4308617,47 L30.4308617,36.9924528 L21,36.9924528 L21,30.590566 L30.4308617,30.590566 L30.4308617,21 L37.5951904,21 L37.5951904,30.590566 Z" id="+" sketch:type="MSShapeGroup"></path>
        </g>
    </g>
</svg>