<?xml version="1.0" encoding="UTF-8" standalone="no"?>
<svg width="32px" height="28px" viewBox="0 0 32 28" version="1.1" xmlns="http://www.w3.org/2000/svg" xmlns:xlink="http://www.w3.org/1999/xlink">
    <!-- Generator: Sketch 41.2 (35397) - http://www.bohemiancoding.com/sketch -->
    <title>icon_cart_filled</title>
    <desc>Created with Sketch.</desc>
    <defs></defs>
    <g id="Page-1" stroke="none" stroke-width="1" fill="none" fill-rule="evenodd">
        <path d="M30.5497408,2.077 C29.4877498,1.774 28.3807592,2.389 28.0767618,3.451 L27.9197631,4 L9.26592139,4 L8.98492377,1.752 C8.85992483,0.751 8.00893205,0 6.99994061,0 L1.99998303,0 C0.894992407,0 0,0.895 0,2 C0,3.105 0.894992407,4 1.99998303,4 L5.23395559,4 L7.01494048,18.248 C7.13993942,19.249 7.9909322,20 8.99992364,20 L25.9997794,20 C26.8927718,20 27.6777652,19.408 27.9227631,18.549 L31.9227292,4.549 C32.2257266,3.487 31.6107318,2.38 30.5487408,2.076 L30.5497408,2.077 L30.5497408,2.077 Z M16.0008642,12 L16.0008642,10 L20.0008303,10 L20.0008303,12 L16.0008642,12 L16.0008642,12 Z M20.0008303,14 L20.0008303,16 L16.0008642,16 L16.0008642,14 L20.0008303,14 L20.0008303,14 Z M16.0008642,8 L16.0008642,6 L20.0008303,6 L20.0008303,8 L16.0008642,8 L16.0008642,8 Z M9.51691926,6 L14.0008812,6 L14.0008812,8 L9.76691714,8 L9.51691926,6 L9.51691926,6 Z M10.016915,10 L14.0008812,10 L14.0008812,12 L10.2669129,12 L10.016915,10 L10.016915,10 Z M10.5169108,14 L14.0008812,14 L14.0008812,16 L10.7669087,16 L10.5169108,14 L10.5169108,14 Z M24.4917922,16 L22.0008133,16 L22.0008133,14 L25.0637874,14 L24.4927922,16 L24.4917922,16 L24.4917922,16 Z M25.6347825,12 L22.0008133,12 L22.0008133,10 L26.2067777,10 L25.6357825,12 L25.6347825,12 L25.6347825,12 Z M26.7777728,8 L22.0008133,8 L22.0008133,6 L27.349768,6 L26.7787728,8 L26.7777728,8 L26.7777728,8 Z M8.00093212,25 C8.00093212,23.343 9.34392073,22 11.0009067,22 C12.6578926,22 14.0008812,23.343 14.0008812,25 C14.0008812,26.657 12.6578926,28 11.0009067,28 C9.34392073,28 8.00093212,26.657 8.00093212,25 L8.00093212,25 L8.00093212,25 Z M20.0008303,25 C20.0008303,23.343 21.3438189,22 23.0008049,22 C24.6577908,22 26.0007794,23.343 26.0007794,25 C26.0007794,26.657 24.6577908,28 23.0008049,28 C21.3438189,28 20.0008303,26.657 20.0008303,25 L20.0008303,25 L20.0008303,25 Z" id="icon_cart_filled" fill="#92BEAE"></path>
    </g>
</svg>