<?xml version="1.0" encoding="UTF-8" standalone="no"?>
<svg width="32px" height="26px" viewBox="0 0 32 26" version="1.1" xmlns="http://www.w3.org/2000/svg" xmlns:xlink="http://www.w3.org/1999/xlink" xmlns:sketch="http://www.bohemiancoding.com/sketch/ns">
    <!-- Generator: Sketch 3.3.1 (12005) - http://www.bohemiancoding.com/sketch -->
    <title>Shape + Shape</title>
    <desc>Created with Sketch.</desc>
    <defs></defs>
    <g id="Page-1" stroke="none" stroke-width="1" fill="none" fill-rule="evenodd" sketch:type="MSPage">
        <g id="Shape-+-Shape" sketch:type="MSLayerGroup" fill="#B8B8B8">
            <path d="M2.24402404,11.9462833 C3.08724917,12.3252763 4.44325134,12.2925169 5.25691783,11.8681408 L8.2747926,10.3085966 C9.09310872,9.88602754 9.77393299,8.8437262 9.77559243,7.99227366 L9.77393299,6.44054504 C13.7326754,4.38179179 18.6219856,4.38299509 22.581058,6.44264987 L22.5797299,7.99468032 C22.5803953,8.84523141 23.2582294,9.88602758 24.0772109,10.3092003 L27.094753,11.8696433 C27.9094175,12.2925169 29.2670791,12.3267788 30.1086435,11.9432783 L30.4699797,11.7827864 C31.3118768,11.4001874 32.0016663,10.3918502 32.0016663,9.54190012 L32.0006682,7.21836389 C32.0016663,6.80390824 31.4978572,6.08169326 31.4958637,6.07988897 C27.4653885,2.35429683 21.9427446,0.247156957 16.180318,0.246855122 C10.4321744,0.245653125 4.9271324,2.34167467 0.899976038,6.04802966 C0.879386659,6.06666176 0.352991391,6.80390694 0.351998003,7.21776159 L0.351666662,9.54009445 C0.351334654,10.390345 1.03979673,11.3992832 1.8820265,11.7803771 L2.24402404,11.9462833 L2.24402404,11.9462833 Z" id="Shape" sketch:type="MSShapeGroup"></path>
            <path d="M29.2496584,16.1560771 C28.934985,14.8638727 27.9045935,13.849472 26.5751518,13.2986003 C26.4720681,13.2558762 26.3724804,13.2097151 26.2769332,13.1601493 L23.261669,11.6008842 C21.9370433,10.9162379 20.9371522,9.36653904 20.9357785,7.99616003 L20.9357785,7.9855729 C20.936036,7.64761371 20.6904205,7.35457871 20.3354698,7.24950021 C19.0262686,6.8618826 17.6290005,6.65067385 16.1766665,6.65067385 C14.7250488,6.65067385 13.3284125,6.86166527 12.0197828,7.24894342 C11.66469,7.35402057 11.4190181,7.64718031 11.419391,7.98526294 L11.419391,7.99077387 C11.4168677,9.36591927 10.4151427,10.9160206 9.0896007,11.600699 L6.07227057,13.159932 C5.97758467,13.2093127 5.8787133,13.2553208 5.77623061,13.2979216 C4.4480217,13.8499362 3.41840428,14.8638728 3.10378855,16.1555512 C2.89916659,16.995648 2.79097982,17.8684372 2.79097982,18.7642948 C2.79097982,25.4544504 8.7839569,25.0690315 16.1766664,25.0690315 C23.569376,25.0690315 29.5623544,25.4544504 29.5623544,18.7642948 C29.5623544,17.868625 29.454224,16.9960183 29.2496584,16.1560771 L29.2496584,16.1560771 Z M13.7646327,21.5802842 C13.7646327,21.891958 13.5607553,22.1446514 13.3092626,22.1446514 L12.3458081,22.1446514 C12.0942872,22.1446514 11.8904111,21.891958 11.8904111,21.5802842 L11.8904111,20.3862215 C11.8904111,20.0745182 12.0942872,19.8218221 12.3458081,19.8218221 L13.3092626,19.8218221 C13.5607553,19.8218221 13.7646327,20.0745182 13.7646327,20.3862215 L13.7646327,21.5802842 L13.7646327,21.5802842 Z M13.7646327,18.1865824 C13.7646327,18.4982857 13.5607553,18.7509495 13.3092626,18.7509495 L12.3458081,18.7509495 C12.0942872,18.7509495 11.8904111,18.4982857 11.8904111,18.1865824 L11.8904111,16.9925196 C11.8904111,16.6808163 12.0942872,16.4281525 12.3458081,16.4281525 L13.3092626,16.4281525 C13.5607553,16.4281525 13.7646327,16.6808163 13.7646327,16.9925196 L13.7646327,18.1865824 L13.7646327,18.1865824 Z M13.7646327,14.7928805 C13.7646327,15.1045865 13.5607553,15.3572798 13.3092626,15.3572798 L12.3458081,15.3572798 C12.0942872,15.3572798 11.8904111,15.1045865 11.8904111,14.7928805 L11.8904111,13.5988204 C11.8904111,13.2871466 12.0942872,13.0344506 12.3458081,13.0344506 L13.3092626,13.0344506 C13.5607553,13.0344506 13.7646327,13.2871466 13.7646327,13.5988204 L13.7646327,14.7928805 L13.7646327,14.7928805 Z M17.1137779,21.5802842 C17.1137779,21.891958 16.9098992,22.1446514 16.6584078,22.1446514 L15.6949251,22.1446514 C15.4434337,22.1446514 15.2395549,21.891958 15.2395549,21.5802842 L15.2395549,20.3862215 C15.2395549,20.0745182 15.4434337,19.8218221 15.6949251,19.8218221 L16.6584078,19.8218221 C16.9098992,19.8218221 17.1137779,20.0745182 17.1137779,20.3862215 L17.1137779,21.5802842 L17.1137779,21.5802842 Z M17.1137779,18.1865824 C17.1137779,18.4982857 16.9098992,18.7509495 16.6584078,18.7509495 L15.6949251,18.7509495 C15.4434337,18.7509495 15.2395549,18.4982857 15.2395549,18.1865824 L15.2395549,16.9925196 C15.2395549,16.6808163 15.4434337,16.4281525 15.6949251,16.4281525 L16.6584078,16.4281525 C16.9098992,16.4281525 17.1137779,16.6808163 17.1137779,16.9925196 L17.1137779,18.1865824 L17.1137779,18.1865824 Z M17.1137779,14.7928805 C17.1137779,15.1045865 16.9098992,15.3572798 16.6584078,15.3572798 L15.6949251,15.3572798 C15.4434337,15.3572798 15.2395549,15.1045865 15.2395549,14.7928805 L15.2395549,13.5988204 C15.2395549,13.2871466 15.4434337,13.0344506 15.6949251,13.0344506 L16.6584078,13.0344506 C16.9098992,13.0344506 17.1137779,13.2871466 17.1137779,13.5988204 L17.1137779,14.7928805 L17.1137779,14.7928805 Z M20.4629232,21.5802842 C20.4629232,21.891958 20.2590444,22.1446514 20.0075236,22.1446514 L19.0440703,22.1446514 C18.792579,22.1446514 18.5887002,21.891958 18.5887002,21.5802842 L18.5887002,20.3862215 C18.5887002,20.0745182 18.792579,19.8218221 19.0440703,19.8218221 L20.0075236,19.8218221 C20.2590444,19.8218221 20.4629232,20.0745182 20.4629232,20.3862215 L20.4629232,21.5802842 L20.4629232,21.5802842 Z M20.4629232,18.1865824 C20.4629232,18.4982857 20.2590444,18.7509495 20.0075236,18.7509495 L19.0440703,18.7509495 C18.792579,18.7509495 18.5887002,18.4982857 18.5887002,18.1865824 L18.5887002,16.9925196 C18.5887002,16.6808163 18.792579,16.4281525 19.0440703,16.4281525 L20.0075236,16.4281525 C20.2590444,16.4281525 20.4629232,16.6808163 20.4629232,16.9925196 L20.4629232,18.1865824 L20.4629232,18.1865824 Z M20.4629232,14.7928805 C20.4629232,15.1045865 20.2590444,15.3572798 20.0075236,15.3572798 L19.0440703,15.3572798 C18.792579,15.3572798 18.5887002,15.1045865 18.5887002,14.7928805 L18.5887002,13.5988204 C18.5887002,13.2871466 18.792579,13.0344506 19.0440703,13.0344506 L20.0075236,13.0344506 C20.2590444,13.0344506 20.4629232,13.2871466 20.4629232,13.5988204 L20.4629232,14.7928805 L20.4629232,14.7928805 Z" id="Shape" sketch:type="MSShapeGroup"></path>
        </g>
    </g>
</svg>