<?xml version="1.0" encoding="UTF-8" standalone="no"?>
<svg width="32px" height="13px" viewBox="0 0 32 13" version="1.1" xmlns="http://www.w3.org/2000/svg" xmlns:xlink="http://www.w3.org/1999/xlink">
    <!-- Generator: Sketch 41.2 (35397) - http://www.bohemiancoding.com/sketch -->
    <title>Shape</title>
    <desc>Created with Sketch.</desc>
    <defs></defs>
    <g id="Page-1" stroke="none" stroke-width="1" fill="none" fill-rule="evenodd">
        <path d="M31.4030573,2.69038625 L27.4948194,0.450629676 C27.1042604,0.226885707 26.6405543,0.249392497 26.2827626,0.468833698 C25.8524857,0.239132048 24.4997615,-0.337769932 22.6234233,0.269251429 L22.5846984,0.283152681 C22.5479594,0.297715898 18.9048383,1.73781947 15.9746528,1.75668545 C13.0444674,1.73781947 9.40134628,0.297715898 9.36460725,0.283152681 L9.32588234,0.269251429 C7.53626156,-0.309636445 6.22226222,0.213315437 5.72645087,0.474460395 C5.3670042,0.249723479 4.89899537,0.224899814 4.50545753,0.450629676 L0.597219667,2.69038625 C0.0282612591,3.01640372 -0.168673152,3.74257867 0.157344318,4.31153708 C0.376785519,4.69448349 0.776943003,4.90895996 1.18901585,4.90895996 C1.38926008,4.90895996 1.59215217,4.85831968 1.77849515,4.75141243 L5.68673301,2.51165586 C6.03956004,2.30942573 6.24907177,1.95328888 6.27985312,1.57663113 C6.53603334,1.43331584 7.58226809,0.980863166 9.00747746,1.43563271 C9.31694582,1.55743416 12.3470879,2.73804768 15.3259277,2.95417906 L15.3259277,4.41612746 L9.45794424,4.41612746 C9.32886118,4.41612746 9.20672874,4.3744237 9.12332123,4.47239443 C9.03991371,4.57036516 9.00317469,4.65079384 9.0233646,4.77756002 L10.1923937,12.0783655 C10.2261539,12.29218 10.410511,12.3597003 10.6266424,12.3597003 L21.3809162,12.3597003 C21.5973785,12.3597003 21.7814046,12.2673563 21.8151648,12.0538728 L22.9841939,4.6961384 C23.0043839,4.56904123 22.9676448,4.55381605 22.8839063,4.45584532 C22.8011608,4.35853655 22.6786974,4.41612746 22.5502763,4.41612746 L16.9808387,4.41612746 L16.9808387,2.93597504 C19.6286964,2.67913285 22.7091477,1.55412434 23.0116655,1.43497075 C24.5315357,0.950081821 25.5360667,1.46343522 25.7075155,1.56306086 C25.7346561,1.94468334 25.9507874,2.30677787 26.3075863,2.51132488 L30.2188029,4.75108145 C30.4048149,4.8579887 30.6100239,4.90862898 30.8102681,4.90862898 C31.221679,4.90862898 31.6224985,4.69415251 31.8422707,4.3112061 C32.1686191,3.74224769 31.9723467,3.01640372 31.4030573,2.69038625 Z M18.5735251,9.04987831 L16.6498565,9.04987831 L16.6498565,7.39496729 L18.6989674,7.39496729 L18.5735251,9.04987831 Z M19.5813659,7.39496729 L21.6453709,7.39496729 L21.3948174,9.04987831 L19.4555927,9.04987831 L19.5813659,7.39496729 Z M10.3625186,7.39496729 L12.6016132,7.39496729 L12.7273864,9.04987831 L10.6130721,9.04987831 L10.3625186,7.39496729 Z M13.4843427,7.39496729 L15.6569099,7.39496729 L15.6569099,9.04987831 L13.610116,9.04987831 L13.4843427,7.39496729 Z M13.4145055,6.40202068 L13.2887323,5.07809186 L15.6569099,5.07809186 L15.6569099,6.40202068 L13.4145055,6.40202068 Z M15.6569099,10.0428249 L15.6569099,11.6977359 L13.8053955,11.6977359 L13.6799532,10.0428249 L15.6569099,10.0428249 Z M16.6498565,10.0428249 L18.5036879,10.0428249 L18.3782456,11.6977359 L16.6498565,11.6977359 L16.6498565,10.0428249 Z M16.6498565,6.40202068 L16.6498565,5.07809186 L18.8942469,5.07809186 L18.7688046,6.40202068 L16.6498565,6.40202068 Z M12.4063337,5.07809186 L12.531776,6.40202068 L10.2231751,6.40202068 L9.97262156,5.07809186 L12.4063337,5.07809186 Z M10.7524156,10.0428249 L12.7972237,10.0428249 L12.9229969,11.6977359 L11.0029692,11.6977359 L10.7524156,10.0428249 Z M19.2606442,11.6977359 L19.3864174,10.0428249 L21.2558049,10.0428249 L21.0052514,11.6977359 L19.2606442,11.6977359 Z M21.7847144,6.40202068 L19.6518651,6.40202068 L19.7776384,5.07809186 L22.035268,5.07809186 L21.7847144,6.40202068 Z" id="Shape" fill="#B8B8B8"></path>
    </g>
</svg>