<?xml version="1.0" encoding="UTF-8" standalone="no"?>
<svg width="32px" height="32px" viewBox="0 0 32 32" version="1.1" xmlns="http://www.w3.org/2000/svg" xmlns:xlink="http://www.w3.org/1999/xlink">
    <!-- Generator: Sketch 3.6 (26304) - http://www.bohemiancoding.com/sketch -->
    <title>Shape</title>
    <desc>Created with Sketch.</desc>
    <defs></defs>
    <g id="Page-1" stroke="none" stroke-width="1" fill="none" fill-rule="evenodd">
        <path d="M16,2 C23.71875,2 30,8.28125 30,16 C30,23.71875 23.71875,30 16,30 C8.28125,30 2,23.71875 2,16 C2,8.28125 8.28125,2 16,2 L16,2 Z M16,0 C7.1640625,0 0,7.1640625 0,16 C0,24.8359375 7.1640625,32 16,32 C24.8359375,32 32,24.8359375 32,16 C32,7.1640625 24.8359375,0 16,0 L16,0 L16,0 Z M24.9199375,21.349625 L24.8300625,21.0761875 C24.619125,20.4473125 23.9238125,19.7910625 23.2831875,19.61525 L20.918,18.96875 C20.277375,18.7949375 19.3633125,19.0293125 18.8926875,19.5 L18.0371875,20.3555 C14.9278125,19.5136875 12.488375,17.07425 11.6485,13.964875 L12.504,13.109375 C12.97275,12.640625 13.207125,11.7265625 13.0333125,11.084 L12.3886875,8.71875 C12.214875,8.078125 11.5546875,7.3828125 10.9258125,7.171875 L10.65625,7.082 C10.025375,6.8710625 9.125,7.0839375 8.65625,7.5546875 L7.375,8.8359375 C7.1465,9.0625 7,9.712875 7,9.714875 C6.957,13.7813125 8.5508125,17.6973125 11.4258125,20.57425 C14.293,23.4414375 18.195375,25.0333125 22.2480625,24.9980625 C22.2695625,24.9980625 22.9395,24.8555 23.168,24.6269375 L24.44925,23.3456875 C24.918,22.878875 25.128875,21.9785 24.9199375,21.349625 L24.9199375,21.349625 Z" id="Shape" fill="#B8B8B8"></path>
    </g>
</svg>