<?xml version="1.0" encoding="UTF-8" standalone="no"?>
<svg width="32px" height="32px" viewBox="0 0 32 32" version="1.1" xmlns="http://www.w3.org/2000/svg" xmlns:xlink="http://www.w3.org/1999/xlink">
    <!-- Generator: Sketch 3.6 (26304) - http://www.bohemiancoding.com/sketch -->
    <title>Shape</title>
    <desc>Created with Sketch.</desc>
    <defs></defs>
    <g id="Page-1" stroke="none" stroke-width="1" fill="none" fill-rule="evenodd">
        <path d="M16,0 C7.17761587,0 0,7.1782751 0,16.0024492 C0,24.8256437 7.17663626,32.0039188 16,32.0039188 C16.5456438,32.0039188 16.9864691,31.5620732 16.9864691,31.0183387 C16.9864691,30.4736245 16.5456438,30.031779 16,30.031779 C8.264985,30.031779 1.97391784,23.7381747 1.97391784,16.0034289 C1.97391784,8.2677035 8.264985,1.97409913 16,1.97409913 C23.735015,1.97409913 30.0251026,8.2677035 30.0251026,16.0034289 C30.0251026,19.2354652 28.3049042,22.4410495 25.8431397,23.7969568 C24.9487541,24.2887671 23.9789383,24.5327128 22.9444683,24.5425098 C23.5655422,24.1721826 24.103349,23.6735143 24.5030307,23.0425864 C24.5813996,22.9240425 24.6852385,22.8211738 24.7361783,22.6908734 C25.057491,21.9178887 25.0858997,21.0410556 25.2798629,20.2259437 C25.5179085,19.1815816 20.716831,17.1467409 20.2995163,18.4477849 C20.1486561,18.9307779 19.9174677,20.4542142 19.6147676,20.855892 C19.3453744,21.2134831 18.6811976,21.0449744 18.2658422,20.6913021 C17.1716157,19.7586259 15.9500398,18.3870434 14.8783445,17.3044729 L14.8803037,17.3034932 C14.8528745,17.2750819 14.8195677,17.2427517 14.7901794,17.2143404 C14.7598114,17.1849493 14.7294435,17.1535988 14.6990755,17.1242078 L14.6990755,17.1242078 C13.6156248,16.0533937 12.2441682,14.833665 11.3125574,13.736399 C10.9598971,13.3210054 10.7894447,12.658727 11.1479826,12.3883293 C11.5496235,12.0846217 13.0738995,11.8563512 13.5558685,11.7044974 C14.8548338,11.2881242 12.8211596,6.48366652 11.7768934,6.72369346 C10.9618564,6.91473532 10.0851038,6.94412637 9.31219004,7.26448886 C9.18092206,7.31935216 9.07904243,7.42124115 8.9605094,7.49961729 C6.21857589,9.23858799 5.86493602,13.4591434 8.54123554,16.6030064 C9.56101145,17.8060802 10.6248699,18.969966 11.7200759,20.1064201 L11.7141982,20.1103389 C11.7445662,20.1407096 11.7759138,20.169121 11.8072614,20.198512 C11.8366497,20.2288828 11.8650585,20.2592536 11.8934672,20.2915837 L11.8993449,20.2857055 C13.0356946,21.3810121 14.3826609,22.9936013 16.5711137,24.4543367 C21.1782281,27.53158 24.7136472,26.6723816 26.796302,25.5300493 C30.3914774,23.5500719 32,19.3206992 32,16.0083274 C32.0009796,7.1782751 24.8223841,0 16,0 L16,0 Z" id="Shape" fill="#B8B8B8"></path>
    </g>
</svg>