<?xml version="1.0" encoding="UTF-8" standalone="no"?>
<svg width="20px" height="24px" viewBox="0 0 20 24" version="1.1" xmlns="http://www.w3.org/2000/svg" xmlns:xlink="http://www.w3.org/1999/xlink" xmlns:sketch="http://www.bohemiancoding.com/sketch/ns">
    <!-- Generator: Sketch 3.3.1 (12005) - http://www.bohemiancoding.com/sketch -->
    <title>Shape</title>
    <desc>Created with Sketch.</desc>
    <defs></defs>
    <g id="Page-1" stroke="none" stroke-width="1" fill="none" fill-rule="evenodd" sketch:type="MSPage">
        <path d="M11.551,17.379 C10.097,17.266 9.487,16.546 8.348,15.854 C7.721,19.141 6.955,22.292 4.687,23.938 C3.987,18.97 5.715,15.239 6.517,11.278 C5.149,8.975 6.682,4.339 9.568,5.482 C13.119,6.887 6.493,14.045 10.941,14.939 C15.585,15.872 17.481,6.881 14.602,3.957 C10.441,-0.265 2.49,3.861 3.467,9.906 C3.705,11.384 5.232,11.832 4.077,13.872 C1.414,13.282 0.619,11.181 0.721,8.381 C0.886,3.797 4.839,0.588 8.805,0.145 C13.82,-0.416 18.527,1.986 19.177,6.704 C19.909,12.029 16.913,17.796 11.55,17.381 L11.551,17.379 Z" id="Shape" fill="#FFFFFF" sketch:type="MSShapeGroup"></path>
    </g>
</svg>