<?xml version="1.0" encoding="UTF-8" standalone="no"?>
<svg width="28px" height="32px" viewBox="0 0 28 32" version="1.1" xmlns="http://www.w3.org/2000/svg" xmlns:xlink="http://www.w3.org/1999/xlink">
    <!-- Generator: Sketch 41.2 (35397) - http://www.bohemiancoding.com/sketch -->
    <title>Shape</title>
    <desc>Created with Sketch.</desc>
    <defs></defs>
    <g id="Page-1" stroke="none" stroke-width="1" fill="none" fill-rule="evenodd">
        <path d="M24.3129152,18.4212715 C23.8864349,18.0010913 22.9405943,17.7785511 21.5013134,17.7596511 C20.5270328,17.7489111 19.3543921,17.8347111 18.1209713,18.0073913 C17.568671,17.6887311 16.9995106,17.3419308 16.5526303,16.9243306 C15.3506496,15.8019099 14.347329,14.2439489 13.7221286,12.5307678 C13.7628686,12.3707477 13.7975486,12.2301076 13.8298286,12.0865876 C13.8298286,12.0865876 14.5068691,8.24100515 14.327649,6.94080434 C14.3029889,6.76248423 14.2878089,6.71076419 14.2398689,6.57216411 L14.1810689,6.42108401 C13.9969287,5.99634375 13.6358485,5.54628347 13.0697482,5.57082348 L12.737768,5.56026348 L12.728648,5.56008348 C12.0973876,5.56008348 11.5828872,5.88294368 11.4478272,6.36552398 C11.0373069,7.87908492 11.4609072,10.1433663 12.2285476,13.0760482 L12.0320475,13.5537085 C11.4823872,14.8936293 10.7935867,16.2430902 10.1858464,17.4336109 L10.1068263,17.588471 C9.46746592,18.8397118 8.88732555,19.9018924 8.36142523,20.801713 L7.81842489,21.0888132 C7.77888486,21.1096932 6.84828428,21.6018735 6.63000414,21.7339336 C4.77828299,22.8395543 3.55122222,24.0946951 3.34764209,25.0906957 C3.28284205,25.4085159 3.33108208,25.8151961 3.66054229,26.0035363 L4.18572262,26.2678364 C4.41354276,26.3819565 4.65378291,26.4397965 4.89990306,26.4397965 C6.21876389,26.4397965 7.74990484,24.7968755 9.85914616,21.1158732 C12.2944277,20.3230327 15.0670894,19.6640523 17.4970909,19.3005721 C19.3489321,20.3433127 21.6265335,21.0675132 23.0640744,21.0675132 C23.3193146,21.0675132 23.5393347,21.0431532 23.7181348,20.9958731 C23.993835,20.9228531 24.2262151,20.765593 24.3678752,20.5522328 C24.6467554,20.1325326 24.7033354,19.5543722 24.6276154,18.9624119 C24.6050554,18.7867917 24.4647153,18.5695916 24.3129152,18.4212715 Z M4.61400288,25.4389959 C4.85448303,24.7813955 5.80650363,23.4813747 7.21410451,22.327874 C7.30260456,22.2561139 7.5205847,22.0518138 7.72020483,21.8621537 C6.24822391,24.2098351 5.26248329,25.1455357 4.61400288,25.4389959 Z M12.9511281,6.2401839 C13.3750884,6.2401839 13.6162285,7.30878457 13.6362685,8.31060519 C13.6562485,9.31248582 13.4219484,10.0156263 13.1313082,10.5358866 C12.8905881,9.7656061 12.774248,8.55150534 12.774248,7.75764485 C12.774248,7.75764485 12.756548,6.2401839 12.9511281,6.2401839 Z M10.4641265,19.9216925 C10.7594467,19.3930321 11.0667069,18.8355118 11.3806871,18.2442714 C12.1460476,16.7968905 12.6294079,15.6643298 12.9894081,14.7334292 C13.7053886,16.03603 14.5970491,17.1434507 15.6452498,18.0307313 C15.7759899,18.1413713 15.9145299,18.2526114 16.06003,18.3635515 C13.9284687,18.7852917 12.0861676,19.2982321 10.4641265,19.9216925 Z M23.9033549,19.8016324 C23.7735149,19.8828124 23.4016346,19.9297325 23.1624145,19.9297325 C22.390394,19.9297325 21.4351934,19.5767522 20.0961126,19.0026719 C20.6106129,18.9645719 21.0823932,18.9452518 21.5054534,18.9452518 C22.2798139,18.9452518 22.5091941,18.9418918 23.2663945,19.135032 C24.023595,19.3281721 24.033135,19.7204523 23.9033549,19.8016324 Z M26.2323164,6.2322039 L21.7678336,1.7677811 C20.795533,0.795480497 18.8750518,0 17.5000309,0 L2.50002156,0 C1.1250007,0 0,1.1250007 0,2.50002156 L0,29.5000384 C0,30.8749993 1.1250007,32 2.50002156,32 L25.5000159,32 C26.8749768,32 27.9999775,30.8749993 27.9999775,29.5000384 L27.9999775,10.5000066 C28.0000375,9.1249857 27.204557,7.2044445 26.2323164,6.2322039 Z M24.8181155,7.64640478 C24.9159756,7.74426484 25.0134156,7.86438492 25.1080957,7.999985 L20.0000525,7.999985 L20.0000525,2.89200181 C20.1357126,2.98668187 20.2558327,3.08418193 20.3536327,3.18198199 L24.8181155,7.64640478 Z M26.0000563,29.5000384 C26.0000563,29.7710586 25.7710961,30.0000188 25.5000759,30.0000188 L2.50002156,30.0000188 C2.22900139,30.0000188 2.00004125,29.7710586 2.00004125,29.5000384 L2.00004125,2.50002156 C2.00004125,2.22900139 2.22906139,2.00004125 2.50002156,2.00004125 L17.5000309,2.00004125 C17.651051,2.00004125 17.8204911,2.01912126 18.0000713,2.05326128 L18.0000713,10.0000263 L25.9468362,10.0000263 C25.9809762,10.1796064 26.0000563,10.3489865 26.0000563,10.5000066 L26.0000563,29.5000384 Z" id="Shape" fill="#3E3E3E"></path>
    </g>
</svg>