<?xml version="1.0" encoding="UTF-8" standalone="no"?>
<svg width="32px" height="21px" viewBox="0 0 32 21" version="1.1" xmlns="http://www.w3.org/2000/svg" xmlns:xlink="http://www.w3.org/1999/xlink">
    <!-- Generator: Sketch 41.2 (35397) - http://www.bohemiancoding.com/sketch -->
    <title>icon_googleplus</title>
    <desc>Created with Sketch.</desc>
    <defs></defs>
    <g id="Page-1" stroke="none" stroke-width="1" fill="none" fill-rule="evenodd">
        <g id="icon_googleplus" fill="#FFFFFF">
            <path d="M11.2106412,12.3674966 L16.2027398,12.3674966 C15.3264694,14.8449286 12.9532109,16.6211769 10.1747636,16.6006769 C6.8034898,16.575784 4.01590816,13.8788486 3.88502891,10.5100153 C3.74473639,6.89887755 6.64186054,3.91633673 10.2223878,3.91633673 C11.8595289,3.91633673 13.3535187,4.54012245 14.4798333,5.56226361 C14.7466122,5.80442857 15.1527075,5.80596259 15.4150935,5.55898639 L17.2486582,3.83329082 C17.5353793,3.56337415 17.5364252,3.10756293 17.2505408,2.8367398 C15.4643214,1.14451361 13.0681922,0.0897397959 10.4258537,0.0381411565 C4.79002721,-0.0718894558 0.0395357143,4.54890816 0.000278911565,10.1857109 C-0.0393265306,15.8648384 4.55246429,20.4809643 10.2223878,20.4809643 C15.6750391,20.4809643 20.1293963,16.2115952 20.4277619,10.8335527 C20.4357109,10.7661259 20.4409405,8.48734864 20.4409405,8.48734864 L11.2106412,8.48734864 C10.8322976,8.48734864 10.5256344,8.7940119 10.5256344,9.17235544 L10.5256344,11.6824898 C10.5256344,12.0608333 10.8323673,12.3674966 11.2106412,12.3674966 Z" id="G"></path>
            <path d="M28.8997007,8.71528912 L28.8997007,6.26275 C28.8997007,5.93119388 28.6309694,5.66246259 28.2994133,5.66246259 L26.2351888,5.66246259 C25.9036327,5.66246259 25.6349014,5.93119388 25.6349014,6.26275 L25.6349014,8.71528912 L23.1823622,8.71528912 C22.8508061,8.71528912 22.5820748,8.98402041 22.5820748,9.31557653 L22.5820748,11.379801 C22.5820748,11.7113571 22.8508061,11.9800884 23.1823622,11.9800884 L25.6349014,11.9800884 L25.6349014,14.4326276 C25.6349014,14.7641837 25.9036327,15.032915 26.2351888,15.032915 L28.2994133,15.032915 C28.6309694,15.032915 28.8997007,14.7641837 28.8997007,14.4326276 L28.8997007,11.9800884 L31.3522398,11.9800884 C31.6837959,11.9800884 31.9525272,11.7113571 31.9525272,11.379801 L31.9525272,9.31557653 C31.9525272,8.98402041 31.6837959,8.71528912 31.3522398,8.71528912 L28.8997007,8.71528912 L28.8997007,8.71528912 Z" id="plus"></path>
        </g>
    </g>
</svg>