<?xml version="1.0" encoding="UTF-8" standalone="no"?>
<svg width="32px" height="26px" viewBox="0 0 32 26" version="1.1" xmlns="http://www.w3.org/2000/svg" xmlns:xlink="http://www.w3.org/1999/xlink" xmlns:sketch="http://www.bohemiancoding.com/sketch/ns">
    <!-- Generator: Sketch 3.3.1 (12005) - http://www.bohemiancoding.com/sketch -->
    <title>Shape</title>
    <desc>Created with Sketch.</desc>
    <defs></defs>
    <g id="Page-1" stroke="none" stroke-width="1" fill="none" fill-rule="evenodd" sketch:type="MSPage">
        <path d="M32,14 L28,6 L22,6 L22,2 C22,0.9 21.1,0 20,0 L2,0 C0.9,0 0,0.9 0,2 L0,18 L2,20 L4.536,20 C4.195,20.588 4,21.271 4,22 C4,24.209 5.791,26 8,26 C10.209,26 12,24.209 12,22 C12,21.271 11.804,20.588 11.464,20 L22.537,20 C22.196,20.588 22,21.271 22,22 C22,24.209 23.791,26 26,26 C28.209,26 30,24.209 30,22 C30,21.271 29.804,20.588 29.463,20 L32,20 L32,14 L32,14 Z M22,14 L22,9 L26.146,9 L28.646,14 L22,14 L22,14 Z" id="Shape" fill="#FFFFFF" sketch:type="MSShapeGroup"></path>
    </g>
</svg>