<?xml version="1.0" encoding="UTF-8" standalone="no"?>
<svg width="32px" height="32px" viewBox="0 0 32 32" version="1.1" xmlns="http://www.w3.org/2000/svg" xmlns:xlink="http://www.w3.org/1999/xlink">
    <!-- Generator: Sketch 3.6 (26304) - http://www.bohemiancoding.com/sketch -->
    <title>Shape</title>
    <desc>Created with Sketch.</desc>
    <defs></defs>
    <g id="Page-1" stroke="none" stroke-width="1" fill="none" fill-rule="evenodd">
        <path d="M31.0079449,27.232 L23.4282028,20.785 C22.6442295,20.08 21.806258,19.756 21.129281,19.787 C22.9182202,17.691 23.9991834,14.972 23.9991834,12 C23.9991834,5.373 18.6263662,0 11.9995917,0 C5.37281718,0 0,5.373 0,12 C0,18.627 5.37281718,24 11.9995917,24 C14.9714906,24 17.690398,22.919 19.7863267,21.13 C19.7553278,21.807 20.0793168,22.645 20.7842928,23.429 L27.2310734,31.009 C28.3350358,32.235 30.1379745,32.339 31.2379371,31.239 C32.3378996,30.139 32.2349031,28.336 31.0079449,27.232 L31.0079449,27.232 Z M12.0005917,20.001 C7.58274198,20.001 4.00086386,16.419 4.00086386,12.001 C4.00086386,7.583 7.58274198,4.001 12.0005917,4.001 C16.4184413,4.001 20.0003194,7.583 20.0003194,12.001 C20.0003194,16.419 16.4184413,20.001 12.0005917,20.001 L12.0005917,20.001 Z" id="Shape" fill="#232323"></path>
    </g>
</svg>