<?xml version="1.0" encoding="UTF-8" standalone="no"?>
<svg width="32px" height="43px" viewBox="0 0 32 43" version="1.1" xmlns="http://www.w3.org/2000/svg" xmlns:xlink="http://www.w3.org/1999/xlink">
    <!-- Generator: Sketch 41.2 (35397) - http://www.bohemiancoding.com/sketch -->
    <title>icon_delete</title>
    <desc>Created with Sketch.</desc>
    <defs></defs>
    <g id="Page-1" stroke="none" stroke-width="1" fill="none" fill-rule="evenodd">
        <g id="icon_delete" fill="#B8B8B8">
            <path d="M3.75060984,40.7904525 C3.79897705,41.9456 4.74953443,42.8572328 5.90552131,42.8572328 L26.0404459,42.8572328 C27.1964328,42.8572328 28.1469902,41.9456 28.1953574,40.7904525 L29.633259,10.4359869 L2.3127082,10.4359869 L3.75060984,40.7904525 Z M20.5277377,17.9755016 C20.5277377,17.4918295 20.9199213,17.099541 21.4038033,17.099541 L22.8049836,17.099541 C23.2885508,17.099541 23.6810492,17.4917246 23.6810492,17.9755016 L23.6810492,35.317718 C23.6810492,35.8014951 23.2888656,36.1936787 22.8049836,36.1936787 L21.4038033,36.1936787 C20.9201311,36.1936787 20.5277377,35.8017049 20.5277377,35.317718 L20.5277377,17.9755016 Z M14.3964328,17.9755016 C14.3964328,17.4918295 14.7886164,17.099541 15.2723934,17.099541 L16.6735738,17.099541 C17.157141,17.099541 17.5495344,17.4917246 17.5495344,17.9755016 L17.5495344,35.317718 C17.5495344,35.8014951 17.1574557,36.1936787 16.6735738,36.1936787 L15.2723934,36.1936787 C14.7887213,36.1936787 14.3964328,35.8017049 14.3964328,35.317718 L14.3964328,17.9755016 L14.3964328,17.9755016 Z M8.26491803,17.9755016 C8.26491803,17.4918295 8.65710164,17.099541 9.14087869,17.099541 L10.5421639,17.099541 C11.0258361,17.099541 11.4181246,17.4917246 11.4181246,17.9755016 L11.4181246,35.317718 C11.4181246,35.8014951 11.025941,36.1936787 10.5421639,36.1936787 L9.14087869,36.1936787 C8.65720656,36.1936787 8.26491803,35.8017049 8.26491803,35.317718 L8.26491803,17.9755016 Z" id="Shape"></path>
            <path d="M30.5906361,2.20779016 L21.301718,2.20779016 L21.301718,0.451672131 C21.301718,0.202281967 21.099541,0 20.8500459,0 L11.0957115,0 C10.8463213,0 10.6441443,0.202281967 10.6441443,0.451672131 L10.6441443,2.20768525 L1.35512131,2.20768525 C0.607580328,2.20768525 0.00167868852,2.8136918 0.00167868852,3.56123279 L0.00167868852,7.8132459 L31.9440787,7.8132459 L31.9440787,3.5613377 C31.9440787,2.81379672 31.338177,2.20779016 30.5906361,2.20779016 Z" id="Shape"></path>
        </g>
    </g>
</svg>